<svg width="832" height="174" viewBox="0 0 832 174" fill="none" xmlns="http://www.w3.org/2000/svg">
<path d="M82.4688 107.302C83.9328 108.766 85.9181 109.588 87.9881 109.588C90.0581 109.588 92.0433 108.766 93.5073 107.302L115.796 85.0156C117.256 83.5512 118.076 81.5676 118.076 79.4998C118.076 77.432 117.256 75.4485 115.796 73.9841L104.761 62.9628L114.952 52.7727L126.005 63.8241C130.164 67.993 132.5 73.6414 132.5 79.5302C132.5 85.419 130.164 91.0674 126.005 95.2363L103.71 117.523C101.651 119.587 99.202 121.223 96.5059 122.335C93.8099 123.446 90.9201 124.012 88.0039 124L88.0028 124C85.0814 124.01 82.1871 123.44 79.4878 122.323C76.7884 121.206 74.3378 119.564 72.2781 117.493L69.9388 115.153L80.1297 104.963L82.4688 107.302Z" fill="url(#paint0_linear_144_261)"/>
<path d="M103.71 41.5073L106.049 43.8462L95.8586 54.0364L93.5195 51.6974C92.0555 50.2341 90.0702 49.412 88.0002 49.412C85.9302 49.412 83.9449 50.2341 82.481 51.6974L60.1927 73.984C59.4683 74.7083 58.8936 75.5682 58.5016 76.5146C58.1095 77.4611 57.9077 78.4754 57.9077 79.4998C57.9077 80.5242 58.1095 81.5386 58.5016 82.485C58.8936 83.4314 59.4683 84.2913 60.1927 85.0157L71.245 96.0671L61.0361 106.257L50.008 95.2059C47.9448 93.1436 46.308 90.695 45.1914 88.0002C44.0747 85.3053 43.5 82.4168 43.5 79.4998C43.5 76.5828 44.0747 73.6944 45.1914 70.9995C46.308 68.3046 47.9447 65.8561 50.0079 63.7939L72.2961 41.5073C74.3585 39.4443 76.8072 37.8077 79.5023 36.6911C82.1973 35.5746 85.086 34.9999 88.0033 34.9999C90.9205 34.9999 93.8092 35.5746 96.5042 36.6911C99.1993 37.8077 101.648 39.4443 103.71 41.5073Z" fill="url(#paint1_linear_144_261)"/>
<path d="M73.6748 76.6098L85.1234 65.1621C86.7153 63.5702 89.2964 63.5702 90.8883 65.1621L102.337 76.6098C103.929 78.2016 103.929 80.7824 102.337 82.3743L90.8883 93.822C89.2964 95.4138 86.7153 95.4138 85.1234 93.822L73.6748 82.3743C72.0829 80.7824 72.0829 78.2016 73.6748 76.6098Z" fill="url(#paint2_linear_144_261)"/>
<path d="M143.293 35.7612L87.9756 4.99994L30.3536 37.0023M100.917 152.157L157.387 120.776V58.2781M18.5636 59.7845V120.775L72.1074 150.561M18.5633 57.2148C26.0541 57.2148 32.1266 51.1026 32.1266 43.5629C32.1266 36.0231 26.0541 29.9109 18.5633 29.9109C11.0725 29.9109 5 36.0231 5 43.5629C5 51.1026 11.0725 57.2148 18.5633 57.2148ZM87.355 169.001C94.8459 169.001 100.918 162.888 100.918 155.349C100.918 147.809 94.8459 141.697 87.355 141.697C79.8642 141.697 73.7917 147.809 73.7917 155.349C73.7917 162.888 79.8642 169.001 87.355 169.001ZM155.437 57.2148C162.928 57.2148 169 51.1026 169 43.5629C169 36.0231 162.928 29.9109 155.437 29.9109C147.946 29.9109 141.873 36.0231 141.873 43.5629C141.873 51.1026 147.946 57.2148 155.437 57.2148Z" stroke="url(#paint3_linear_144_261)" stroke-width="10" stroke-linecap="round" stroke-linejoin="round"/>
<path d="M230.952 133.72C225.235 133.72 220.115 132.312 215.592 129.496C211.069 126.68 207.485 122.84 204.84 117.976C202.28 113.112 201 107.651 201 101.592C201 95.448 202.28 89.944 204.84 85.08C207.485 80.216 211.027 76.376 215.464 73.56C219.987 70.744 225.149 69.336 230.952 69.336C235.389 69.336 239.357 70.232 242.856 72.024C246.44 73.816 249.299 76.3333 251.432 79.576C253.651 82.7333 254.845 86.3173 255.016 90.328V112.344C254.845 116.355 253.693 119.981 251.56 123.224C249.427 126.467 246.568 129.027 242.984 130.904C239.4 132.781 235.389 133.72 230.952 133.72ZM233.768 118.232C236.925 118.232 239.656 117.549 241.96 116.184C244.349 114.733 246.184 112.771 247.464 110.296C248.829 107.736 249.512 104.792 249.512 101.464C249.512 98.2213 248.829 95.3627 247.464 92.888C246.184 90.328 244.349 88.3653 241.96 87C239.656 85.5493 236.968 84.824 233.896 84.824C230.739 84.824 227.965 85.5493 225.576 87C223.272 88.4507 221.437 90.4133 220.072 92.888C218.792 95.3627 218.152 98.2213 218.152 101.464C218.152 104.792 218.792 107.736 220.072 110.296C221.437 112.771 223.315 114.733 225.704 116.184C228.093 117.549 230.781 118.232 233.768 118.232ZM265.256 132.44H248.616V115.8L251.304 100.696L248.488 85.848V39.896H265.256V132.44Z" fill="url(#paint4_linear_144_261)"/>
<path d="M277.53 132.44V70.616H294.426V132.44H277.53ZM285.978 60.632C283.247 60.632 280.986 59.736 279.194 57.944C277.402 56.0667 276.506 53.7627 276.506 51.032C276.506 48.3867 277.402 46.1253 279.194 44.248C280.986 42.3707 283.247 41.432 285.978 41.432C288.794 41.432 291.055 42.3707 292.762 44.248C294.554 46.1253 295.45 48.3867 295.45 51.032C295.45 53.7627 294.554 56.0667 292.762 57.944C291.055 59.736 288.794 60.632 285.978 60.632Z" fill="url(#paint5_linear_144_261)"/>
<path d="M335.348 132.44V112.728H357.108C362.228 112.728 366.665 111.747 370.42 109.784C374.26 107.821 377.204 104.92 379.252 101.08C381.3 97.1547 382.324 92.4187 382.324 86.872C382.324 81.4107 381.257 76.8027 379.124 73.048C377.076 69.208 374.175 66.3067 370.42 64.344C366.665 62.3813 362.228 61.4 357.108 61.4H334.324V41.688H357.236C364.233 41.688 370.676 42.7973 376.564 45.016C382.452 47.1493 387.572 50.2213 391.924 54.232C396.276 58.2427 399.647 63.0213 402.036 68.568C404.511 74.1147 405.748 80.2587 405.748 87C405.748 93.8267 404.511 100.013 402.036 105.56C399.647 111.107 396.276 115.885 391.924 119.896C387.572 123.907 382.452 127.021 376.564 129.24C370.761 131.373 364.404 132.44 357.492 132.44H335.348ZM319.86 132.44V41.688H342.772V132.44H319.86Z" fill="url(#paint6_linear_144_261)"/>
<path d="M400.339 132.44L435.539 41.688H457.683L492.499 132.44H468.563L442.323 56.152H450.643L423.763 132.44H400.339ZM421.715 116.568V98.392H471.763V116.568H421.715Z" fill="url(#paint7_linear_144_261)"/>
<path d="M530.29 134.104C523.293 134.104 516.85 132.909 510.962 130.52C505.074 128.131 499.911 124.803 495.474 120.536C491.122 116.269 487.709 111.277 485.234 105.56C482.759 99.7573 481.522 93.528 481.522 86.872C481.522 80.216 482.717 74.072 485.106 68.44C487.581 62.7227 490.994 57.7307 495.346 53.464C499.698 49.1973 504.818 45.912 510.706 43.608C516.594 41.2187 523.037 40.024 530.034 40.024C537.031 40.024 543.474 41.2187 549.362 43.608C555.25 45.912 560.37 49.1973 564.722 53.464C569.074 57.7307 572.445 62.7227 574.834 68.44C577.309 74.1573 578.546 80.344 578.546 87C578.546 93.656 577.309 99.8427 574.834 105.56C572.445 111.277 569.074 116.312 564.722 120.664C560.37 124.931 555.25 128.259 549.362 130.648C543.559 132.952 537.202 134.104 530.29 134.104ZM530.034 113.624C535.154 113.624 539.591 112.515 543.346 110.296C547.101 108.077 550.002 104.963 552.05 100.952C554.098 96.9413 555.122 92.248 555.122 86.872C555.122 82.9467 554.525 79.3627 553.33 76.12C552.221 72.8773 550.557 70.104 548.338 67.8C546.119 65.4107 543.474 63.576 540.402 62.296C537.33 61.016 533.874 60.376 530.034 60.376C524.914 60.376 520.477 61.4853 516.722 63.704C512.967 65.8373 510.066 68.9093 508.018 72.92C505.97 76.9307 504.946 81.5813 504.946 86.872C504.946 90.968 505.501 94.68 506.61 98.008C507.805 101.251 509.511 104.067 511.73 106.456C513.949 108.76 516.594 110.552 519.666 111.832C522.738 113.027 526.194 113.624 530.034 113.624Z" fill="url(#paint8_linear_144_261)"/>
<g filter="url(#filter0_bi_144_261)">
<rect x="602.546" y="47" width="229" height="80" rx="32" fill="#282828" fill-opacity="0.7" style="mix-blend-mode:luminosity"/>
<rect x="603.046" y="47.5" width="228" height="79" rx="31.5" stroke="url(#paint9_linear_144_261)" stroke-opacity="0.25"/>
<path d="M660.062 113H649.182V63.02H660.062C661.377 63.02 662.691 63.1333 664.006 63.36C665.366 63.5867 666.635 63.9947 667.814 64.584C669.038 65.128 670.149 65.876 671.146 66.828C672.143 67.7347 672.959 68.7773 673.594 69.956C674.229 71.1347 674.659 72.404 674.886 73.764C675.158 75.0787 675.294 76.3933 675.294 77.708V98.312C675.294 99.6267 675.158 100.964 674.886 102.324C674.659 103.639 674.229 104.885 673.594 106.064C672.959 107.243 672.143 108.308 671.146 109.26C670.149 110.167 669.038 110.915 667.814 111.504C666.635 112.048 665.366 112.433 664.006 112.66C662.691 112.887 661.377 113 660.062 113ZM655.302 107.56H660.062C660.878 107.56 661.694 107.492 662.51 107.356C663.326 107.22 664.097 106.971 664.822 106.608C665.547 106.2 666.205 105.701 666.794 105.112C667.383 104.523 667.859 103.865 668.222 103.14C668.585 102.369 668.834 101.576 668.97 100.76C669.106 99.944 669.174 99.128 669.174 98.312V77.708C669.174 76.892 669.106 76.076 668.97 75.26C668.834 74.444 668.585 73.6733 668.222 72.948C667.859 72.1773 667.383 71.4973 666.794 70.908C666.205 70.3187 665.547 69.8427 664.822 69.48C664.097 69.072 663.326 68.8 662.51 68.664C661.694 68.528 660.878 68.46 660.062 68.46H655.302V107.56ZM698.686 113.544C697.462 113.544 696.238 113.431 695.014 113.204C693.835 112.977 692.702 112.569 691.614 111.98C690.571 111.391 689.619 110.643 688.758 109.736C687.942 108.829 687.262 107.832 686.718 106.744C686.219 105.656 685.857 104.5 685.63 103.276C685.449 102.052 685.358 100.851 685.358 99.672V76.348C685.358 75.1693 685.449 73.968 685.63 72.744C685.857 71.52 686.219 70.364 686.718 69.276C687.262 68.188 687.942 67.1907 688.758 66.284C689.619 65.3773 690.571 64.6293 691.614 64.04C692.702 63.4507 693.835 63.0427 695.014 62.816C696.238 62.5893 697.462 62.476 698.686 62.476C699.91 62.476 701.111 62.5893 702.29 62.816C703.514 63.0427 704.647 63.4507 705.69 64.04C706.778 64.6293 707.73 65.3773 708.546 66.284C709.407 67.1907 710.087 68.188 710.586 69.276C711.13 70.364 711.493 71.52 711.674 72.744C711.901 73.968 712.014 75.1693 712.014 76.348V99.672C712.014 100.851 711.901 102.052 711.674 103.276C711.493 104.5 711.13 105.656 710.586 106.744C710.087 107.832 709.407 108.829 708.546 109.736C707.73 110.643 706.778 111.391 705.69 111.98C704.647 112.569 703.514 112.977 702.29 113.204C701.111 113.431 699.91 113.544 698.686 113.544ZM698.686 108.104C699.729 108.104 700.749 107.9 701.746 107.492C702.743 107.084 703.559 106.472 704.194 105.656C704.874 104.795 705.327 103.843 705.554 102.8C705.781 101.757 705.894 100.715 705.894 99.672V76.348C705.894 75.3053 705.781 74.2627 705.554 73.22C705.327 72.1773 704.874 71.248 704.194 70.432C703.559 69.5707 702.743 68.936 701.746 68.528C700.749 68.12 699.729 67.916 698.686 67.916C697.643 67.916 696.623 68.12 695.626 68.528C694.629 68.936 693.79 69.5707 693.11 70.432C692.475 71.248 692.045 72.1773 691.818 73.22C691.591 74.2627 691.478 75.3053 691.478 76.348V99.672C691.478 100.715 691.591 101.757 691.818 102.8C692.045 103.843 692.475 104.795 693.11 105.656C693.79 106.472 694.629 107.084 695.626 107.492C696.623 107.9 697.643 108.104 698.686 108.104ZM735.202 113.544C733.978 113.544 732.777 113.431 731.598 113.204C730.419 112.977 729.286 112.569 728.198 111.98C727.155 111.391 726.226 110.643 725.41 109.736C724.594 108.829 723.914 107.832 723.37 106.744C722.871 105.611 722.531 104.455 722.35 103.276C722.169 102.052 722.078 100.851 722.078 99.672V76.348C722.078 75.1693 722.169 73.9907 722.35 72.812C722.531 71.588 722.871 70.432 723.37 69.344C723.914 68.2107 724.594 67.1907 725.41 66.284C726.226 65.3773 727.155 64.6293 728.198 64.04C729.286 63.4507 730.419 63.0427 731.598 62.816C732.777 62.5893 733.978 62.476 735.202 62.476C736.335 62.476 737.469 62.5893 738.602 62.816C739.735 62.9973 740.801 63.3373 741.798 63.836C742.841 64.3347 743.77 64.992 744.586 65.808C745.447 66.5787 746.15 67.4627 746.694 68.46C747.238 69.4573 747.646 70.5227 747.918 71.656C748.19 72.7893 748.326 73.9227 748.326 75.056V75.532H742.206V75.26C742.206 74.308 742.047 73.356 741.73 72.404C741.458 71.452 741.005 70.636 740.37 69.956C739.735 69.2307 738.942 68.7093 737.99 68.392C737.083 68.0747 736.154 67.916 735.202 67.916C734.159 67.916 733.139 68.1427 732.142 68.596C731.19 69.004 730.397 69.6387 729.762 70.5C729.173 71.316 728.765 72.2453 728.538 73.288C728.311 74.3307 728.198 75.3507 728.198 76.348V99.672C728.198 100.669 728.311 101.689 728.538 102.732C728.765 103.775 729.173 104.727 729.762 105.588C730.397 106.404 731.19 107.039 732.142 107.492C733.139 107.9 734.159 108.104 735.202 108.104C736.154 108.104 737.083 107.945 737.99 107.628C738.942 107.311 739.735 106.812 740.37 106.132C741.005 105.407 741.458 104.568 741.73 103.616C742.047 102.664 742.206 101.712 742.206 100.76V100.488H748.326V100.964C748.326 102.097 748.19 103.231 747.918 104.364C747.646 105.497 747.238 106.563 746.694 107.56C746.15 108.557 745.447 109.464 744.586 110.28C743.77 111.051 742.841 111.685 741.798 112.184C740.801 112.683 739.735 113.023 738.602 113.204C737.469 113.431 736.335 113.544 735.202 113.544ZM772.058 113.544C770.925 113.544 769.769 113.453 768.59 113.272C767.457 113.091 766.369 112.751 765.326 112.252C764.283 111.753 763.331 111.119 762.47 110.348C761.609 109.577 760.883 108.693 760.294 107.696C759.75 106.699 759.342 105.633 759.07 104.5C758.798 103.367 758.662 102.233 758.662 101.1V100.488H764.782V100.828C764.782 101.825 764.941 102.8 765.258 103.752C765.575 104.659 766.074 105.475 766.754 106.2C767.434 106.88 768.25 107.379 769.202 107.696C770.154 107.968 771.106 108.104 772.058 108.104C773.01 108.104 773.962 107.945 774.914 107.628C775.866 107.311 776.682 106.812 777.362 106.132C778.042 105.452 778.541 104.636 778.858 103.684C779.175 102.732 779.334 101.78 779.334 100.828C779.334 99.6493 779.085 98.5387 778.586 97.496C778.133 96.408 777.498 95.456 776.682 94.64C775.911 93.824 775.027 93.1213 774.03 92.532C773.033 91.9427 772.035 91.376 771.038 90.832C770.041 90.288 769.043 89.7213 768.046 89.132C767.094 88.4973 766.165 87.8173 765.258 87.092C764.397 86.3213 763.581 85.5053 762.81 84.644C762.085 83.7373 761.45 82.7853 760.906 81.788C760.407 80.7907 760.022 79.7253 759.75 78.592C759.478 77.4587 759.342 76.3253 759.342 75.192C759.342 74.0587 759.455 72.948 759.682 71.86C759.954 70.7267 760.339 69.6613 760.838 68.664C761.382 67.6213 762.062 66.692 762.878 65.876C763.694 65.06 764.601 64.4027 765.598 63.904C766.595 63.36 767.661 62.9973 768.794 62.816C769.927 62.5893 771.061 62.476 772.194 62.476C773.327 62.476 774.438 62.5893 775.526 62.816C776.659 62.9973 777.725 63.3373 778.722 63.836C779.765 64.3347 780.694 64.992 781.51 65.808C782.326 66.5787 782.983 67.4627 783.482 68.46C784.026 69.4573 784.411 70.5227 784.638 71.656C784.91 72.744 785.046 73.832 785.046 74.92V75.532H778.926V75.192C778.926 74.24 778.79 73.3107 778.518 72.404C778.246 71.4973 777.793 70.704 777.158 70.024C776.569 69.2987 775.821 68.7773 774.914 68.46C774.053 68.0973 773.146 67.916 772.194 67.916C771.242 67.916 770.313 68.0973 769.406 68.46C768.545 68.7773 767.797 69.2987 767.162 70.024C766.573 70.704 766.142 71.4973 765.87 72.404C765.598 73.3107 765.462 74.24 765.462 75.192C765.462 76.3253 765.689 77.436 766.142 78.524C766.595 79.612 767.207 80.564 767.978 81.38C768.794 82.196 769.701 82.8987 770.698 83.488C771.695 84.0773 772.693 84.644 773.69 85.188C774.733 85.732 775.73 86.3213 776.682 86.956C777.679 87.5453 778.609 88.2027 779.47 88.928C780.331 89.6533 781.125 90.4693 781.85 91.376C782.621 92.2373 783.278 93.1893 783.822 94.232C784.366 95.2293 784.774 96.2947 785.046 97.428C785.318 98.5613 785.454 99.6947 785.454 100.828C785.454 101.961 785.318 103.117 785.046 104.296C784.774 105.429 784.343 106.517 783.754 107.56C783.21 108.557 782.507 109.464 781.646 110.28C780.83 111.051 779.878 111.685 778.79 112.184C777.747 112.683 776.659 113.023 775.526 113.204C774.393 113.431 773.237 113.544 772.058 113.544Z" fill="#07B5FF" fill-opacity="0.9"/>
</g>
<defs>
<filter id="filter0_bi_144_261" x="502.546" y="-53" width="429" height="280" filterUnits="userSpaceOnUse" color-interpolation-filters="sRGB">
<feFlood flood-opacity="0" result="BackgroundImageFix"/>
<feGaussianBlur in="BackgroundImageFix" stdDeviation="50"/>
<feComposite in2="SourceAlpha" operator="in" result="effect1_backgroundBlur_144_261"/>
<feBlend mode="normal" in="SourceGraphic" in2="effect1_backgroundBlur_144_261" result="shape"/>
<feColorMatrix in="SourceAlpha" type="matrix" values="0 0 0 0 0 0 0 0 0 0 0 0 0 0 0 0 0 0 127 0" result="hardAlpha"/>
<feOffset dx="2" dy="4"/>
<feGaussianBlur stdDeviation="8"/>
<feComposite in2="hardAlpha" operator="arithmetic" k2="-1" k3="1"/>
<feColorMatrix type="matrix" values="0 0 0 0 0.972549 0 0 0 0 0.972549 0 0 0 0 0.972549 0 0 0 0.06 0"/>
<feBlend mode="normal" in2="shape" result="effect2_innerShadow_144_261"/>
</filter>
<linearGradient id="paint0_linear_144_261" x1="132.5" y1="34.9999" x2="81.2142" y2="140.796" gradientUnits="userSpaceOnUse">
<stop stop-color="#6BD3F9"/>
<stop offset="1" stop-color="#26BAF5"/>
<stop offset="1" stop-color="#0DA3DF"/>
</linearGradient>
<linearGradient id="paint1_linear_144_261" x1="132.5" y1="34.9999" x2="81.2142" y2="140.796" gradientUnits="userSpaceOnUse">
<stop stop-color="#6BD3F9"/>
<stop offset="1" stop-color="#26BAF5"/>
<stop offset="1" stop-color="#0DA3DF"/>
</linearGradient>
<linearGradient id="paint2_linear_144_261" x1="132.5" y1="34.9999" x2="81.2142" y2="140.796" gradientUnits="userSpaceOnUse">
<stop stop-color="#6BD3F9"/>
<stop offset="1" stop-color="#26BAF5"/>
<stop offset="1" stop-color="#0DA3DF"/>
</linearGradient>
<linearGradient id="paint3_linear_144_261" x1="169" y1="4.99994" x2="74.495" y2="199.951" gradientUnits="userSpaceOnUse">
<stop stop-color="#6BD3F9"/>
<stop offset="1" stop-color="#26BAF5"/>
<stop offset="1" stop-color="#0DA3DF"/>
</linearGradient>
<linearGradient id="paint4_linear_144_261" x1="582.587" y1="40.6437" x2="552.099" y2="200.899" gradientUnits="userSpaceOnUse">
<stop stop-color="#FCFCFD"/>
<stop offset="0.0001" stop-color="white"/>
<stop offset="0.447917" stop-color="white"/>
<stop offset="1" stop-color="white" stop-opacity="0.7"/>
</linearGradient>
<linearGradient id="paint5_linear_144_261" x1="582.587" y1="40.6437" x2="552.099" y2="200.899" gradientUnits="userSpaceOnUse">
<stop stop-color="#FCFCFD"/>
<stop offset="0.0001" stop-color="white"/>
<stop offset="0.447917" stop-color="white"/>
<stop offset="1" stop-color="white" stop-opacity="0.7"/>
</linearGradient>
<linearGradient id="paint6_linear_144_261" x1="582.587" y1="40.6437" x2="552.099" y2="200.899" gradientUnits="userSpaceOnUse">
<stop stop-color="#FCFCFD"/>
<stop offset="0.0001" stop-color="white"/>
<stop offset="0.447917" stop-color="white"/>
<stop offset="1" stop-color="white" stop-opacity="0.7"/>
</linearGradient>
<linearGradient id="paint7_linear_144_261" x1="582.587" y1="40.6437" x2="552.099" y2="200.899" gradientUnits="userSpaceOnUse">
<stop stop-color="#FCFCFD"/>
<stop offset="0.0001" stop-color="white"/>
<stop offset="0.447917" stop-color="white"/>
<stop offset="1" stop-color="white" stop-opacity="0.7"/>
</linearGradient>
<linearGradient id="paint8_linear_144_261" x1="582.587" y1="40.6437" x2="552.099" y2="200.899" gradientUnits="userSpaceOnUse">
<stop stop-color="#FCFCFD"/>
<stop offset="0.0001" stop-color="white"/>
<stop offset="0.447917" stop-color="white"/>
<stop offset="1" stop-color="white" stop-opacity="0.7"/>
</linearGradient>
<linearGradient id="paint9_linear_144_261" x1="717.046" y1="47" x2="730.847" y2="146.726" gradientUnits="userSpaceOnUse">
<stop stop-color="white" stop-opacity="0.4"/>
<stop offset="0.4" stop-color="white" stop-opacity="0.01"/>
<stop offset="0.6" stop-color="white" stop-opacity="0.01"/>
<stop offset="1" stop-color="white" stop-opacity="0.1"/>
</linearGradient>
</defs>
</svg>
