<svg width="617" height="212" viewBox="0 0 617 212" fill="none" xmlns="http://www.w3.org/2000/svg">
<path d="M87.8077 157.231C90.5054 159.928 94.1636 161.443 97.978 161.443C101.792 161.443 105.451 159.928 108.148 157.231L149.219 116.164C151.909 113.465 153.42 109.81 153.42 106C153.42 102.189 151.909 98.5345 149.219 95.8361L128.886 75.5272L147.665 56.7499L168.031 77.1143C175.696 84.7963 180 95.2046 180 106.056C180 116.907 175.696 127.315 168.031 134.997L126.95 176.065C123.154 179.869 118.642 182.883 113.674 184.931C108.706 186.98 103.381 188.023 98.0071 188L98.0052 188C92.622 188.019 87.2886 186.969 82.3145 184.91C77.3405 182.852 72.8247 179.826 69.0294 176.009L69.0289 176.008L64.7187 171.699L83.4974 152.921L87.8077 157.231Z" fill="url(#paint0_linear_144_152)"/>
<path d="M126.95 35.9912L131.26 40.3011L112.481 59.0785L108.171 54.7685C105.473 52.072 101.815 50.5572 98.0004 50.5572C94.186 50.5572 90.5277 52.072 87.8301 54.7685L46.7597 95.8359C45.4247 97.1706 44.3658 98.7552 43.6433 100.499C42.9208 102.243 42.549 104.112 42.549 106C42.549 107.888 42.9208 109.757 43.6433 111.501C44.3658 113.245 45.4247 114.829 46.7597 116.164L67.1256 136.528L48.3138 155.306L27.9923 134.941C24.1904 131.141 21.1743 126.629 19.1167 121.663C17.0591 116.698 16 111.375 16 106C16 100.625 17.0591 95.3022 19.1167 90.3363C21.1743 85.3705 24.1902 80.8587 27.9921 77.0586L69.0625 35.9912C72.8629 32.1896 77.3751 29.1739 82.3413 27.1165C87.3075 25.059 92.6304 24 98.006 24C103.382 24 108.705 25.059 113.671 27.1165C118.637 29.1739 123.149 32.1896 126.95 35.9912Z" fill="url(#paint1_linear_144_152)"/>
<path d="M71.603 100.674L92.6993 79.5798C95.6327 76.6465 100.389 76.6465 103.322 79.5797L124.419 100.674C127.352 103.608 127.352 108.363 124.419 111.297L103.322 132.391C100.389 135.325 95.6327 135.325 92.6993 132.391L71.603 111.297C68.6696 108.363 68.6696 103.608 71.603 100.674Z" fill="url(#paint2_linear_144_152)"/>
<path d="M249.774 154.78C244.056 154.78 238.936 153.372 234.414 150.556C229.891 147.74 226.307 143.9 223.662 139.036C221.102 134.172 219.822 128.711 219.822 122.652C219.822 116.508 221.102 111.004 223.662 106.14C226.307 101.276 229.848 97.436 234.286 94.62C238.808 91.804 243.971 90.396 249.774 90.396C254.211 90.396 258.179 91.292 261.678 93.084C265.262 94.876 268.12 97.3933 270.254 100.636C272.472 103.793 273.667 107.377 273.838 111.388V133.404C273.667 137.415 272.515 141.041 270.382 144.284C268.248 147.527 265.39 150.087 261.806 151.964C258.222 153.841 254.211 154.78 249.774 154.78ZM252.59 139.292C255.747 139.292 258.478 138.609 260.782 137.244C263.171 135.793 265.006 133.831 266.286 131.356C267.651 128.796 268.334 125.852 268.334 122.524C268.334 119.281 267.651 116.423 266.286 113.948C265.006 111.388 263.171 109.425 260.782 108.06C258.478 106.609 255.79 105.884 252.718 105.884C249.56 105.884 246.787 106.609 244.398 108.06C242.094 109.511 240.259 111.473 238.894 113.948C237.614 116.423 236.974 119.281 236.974 122.524C236.974 125.852 237.614 128.796 238.894 131.356C240.259 133.831 242.136 135.793 244.526 137.244C246.915 138.609 249.603 139.292 252.59 139.292ZM284.078 153.5H267.438V136.86L270.126 121.756L267.31 106.908V60.956H284.078V153.5Z" fill="url(#paint3_linear_144_152)"/>
<path d="M296.352 153.5V91.676H313.248V153.5H296.352ZM304.8 81.692C302.069 81.692 299.808 80.796 298.016 79.004C296.224 77.1267 295.328 74.8227 295.328 72.092C295.328 69.4467 296.224 67.1853 298.016 65.308C299.808 63.4307 302.069 62.492 304.8 62.492C307.616 62.492 309.877 63.4307 311.584 65.308C313.376 67.1853 314.272 69.4467 314.272 72.092C314.272 74.8227 313.376 77.1267 311.584 79.004C309.877 80.796 307.616 81.692 304.8 81.692Z" fill="url(#paint4_linear_144_152)"/>
<path d="M354.17 153.5V133.788H375.93C381.05 133.788 385.487 132.807 389.242 130.844C393.082 128.881 396.026 125.98 398.074 122.14C400.122 118.215 401.146 113.479 401.146 107.932C401.146 102.471 400.079 97.8627 397.946 94.108C395.898 90.268 392.996 87.3667 389.242 85.404C385.487 83.4413 381.05 82.46 375.93 82.46H353.146V62.748H376.058C383.055 62.748 389.498 63.8573 395.386 66.076C401.274 68.2093 406.394 71.2813 410.746 75.292C415.098 79.3027 418.468 84.0813 420.858 89.628C423.332 95.1747 424.57 101.319 424.57 108.06C424.57 114.887 423.332 121.073 420.858 126.62C418.468 132.167 415.098 136.945 410.746 140.956C406.394 144.967 401.274 148.081 395.386 150.3C389.583 152.433 383.226 153.5 376.314 153.5H354.17ZM338.682 153.5V62.748H361.594V153.5H338.682Z" fill="url(#paint5_linear_144_152)"/>
<path d="M419.161 153.5L454.361 62.748H476.505L511.321 153.5H487.385L461.145 77.212H469.465L442.585 153.5H419.161ZM440.537 137.628V119.452H490.585V137.628H440.537Z" fill="url(#paint6_linear_144_152)"/>
<path d="M549.112 155.164C542.114 155.164 535.672 153.969 529.784 151.58C523.896 149.191 518.733 145.863 514.296 141.596C509.944 137.329 506.53 132.337 504.056 126.62C501.581 120.817 500.344 114.588 500.344 107.932C500.344 101.276 501.538 95.132 503.928 89.5C506.402 83.7827 509.816 78.7907 514.168 74.524C518.52 70.2573 523.64 66.972 529.528 64.668C535.416 62.2787 541.858 61.084 548.856 61.084C555.853 61.084 562.296 62.2787 568.184 64.668C574.072 66.972 579.192 70.2573 583.544 74.524C587.896 78.7907 591.266 83.7827 593.656 89.5C596.13 95.2173 597.368 101.404 597.368 108.06C597.368 114.716 596.13 120.903 593.656 126.62C591.266 132.337 587.896 137.372 583.544 141.724C579.192 145.991 574.072 149.319 568.184 151.708C562.381 154.012 556.024 155.164 549.112 155.164ZM548.856 134.684C553.976 134.684 558.413 133.575 562.168 131.356C565.922 129.137 568.824 126.023 570.872 122.012C572.92 118.001 573.944 113.308 573.944 107.932C573.944 104.007 573.346 100.423 572.152 97.18C571.042 93.9373 569.378 91.164 567.16 88.86C564.941 86.4707 562.296 84.636 559.224 83.356C556.152 82.076 552.696 81.436 548.856 81.436C543.736 81.436 539.298 82.5453 535.544 84.764C531.789 86.8973 528.888 89.9693 526.84 93.98C524.792 97.9907 523.768 102.641 523.768 107.932C523.768 112.028 524.322 115.74 525.432 119.068C526.626 122.311 528.333 125.127 530.552 127.516C532.77 129.82 535.416 131.612 538.488 132.892C541.56 134.087 545.016 134.684 548.856 134.684Z" fill="url(#paint7_linear_144_152)"/>
<defs>
<linearGradient id="paint0_linear_144_152" x1="16" y1="188" x2="180" y2="24" gradientUnits="userSpaceOnUse">
<stop/>
<stop offset="1" stop-color="#262626"/>
</linearGradient>
<linearGradient id="paint1_linear_144_152" x1="16" y1="188" x2="180" y2="24" gradientUnits="userSpaceOnUse">
<stop/>
<stop offset="1" stop-color="#262626"/>
</linearGradient>
<linearGradient id="paint2_linear_144_152" x1="16" y1="188" x2="180" y2="24" gradientUnits="userSpaceOnUse">
<stop/>
<stop offset="1" stop-color="#262626"/>
</linearGradient>
<linearGradient id="paint3_linear_144_152" x1="219.822" y1="155.164" x2="264.081" y2="-22.2081" gradientUnits="userSpaceOnUse">
<stop/>
<stop offset="1" stop-color="#262626"/>
</linearGradient>
<linearGradient id="paint4_linear_144_152" x1="219.822" y1="155.164" x2="264.081" y2="-22.2081" gradientUnits="userSpaceOnUse">
<stop/>
<stop offset="1" stop-color="#262626"/>
</linearGradient>
<linearGradient id="paint5_linear_144_152" x1="219.822" y1="155.164" x2="264.081" y2="-22.2081" gradientUnits="userSpaceOnUse">
<stop/>
<stop offset="1" stop-color="#262626"/>
</linearGradient>
<linearGradient id="paint6_linear_144_152" x1="219.822" y1="155.164" x2="264.081" y2="-22.2081" gradientUnits="userSpaceOnUse">
<stop/>
<stop offset="1" stop-color="#262626"/>
</linearGradient>
<linearGradient id="paint7_linear_144_152" x1="219.822" y1="155.164" x2="264.081" y2="-22.2081" gradientUnits="userSpaceOnUse">
<stop/>
<stop offset="1" stop-color="#262626"/>
</linearGradient>
</defs>
</svg>
